<svg width="8" height="8" viewBox="0 0 8 8" fill="none" xmlns="http://www.w3.org/2000/svg">
<g id="pencil">
<path id="v2 (Stroke)" fill-rule="evenodd" clip-rule="evenodd" d="M5.81408 0.56407C5.8995 0.478643 6.03801 0.478643 6.12344 0.56407L7.43594 1.87657C7.52136 1.962 7.52136 2.1005 7.43594 2.18593L3.06094 6.56093C3.03999 6.58188 3.015 6.59835 2.9875 6.60935L0.799998 7.48435C0.718751 7.51685 0.625953 7.49781 0.564077 7.43593C0.502201 7.37405 0.483153 7.28126 0.515652 7.20001L1.39065 5.01251C1.40165 4.985 1.41813 4.96002 1.43908 4.93907L5.81408 0.56407ZM5.40312 1.59375L6.40626 2.59689L6.9719 2.03125L5.96876 1.02811L5.40312 1.59375ZM6.0969 2.90625L5.09376 1.90311L2.25001 4.74686V4.875H2.46876C2.58957 4.875 2.68751 4.97294 2.68751 5.09375V5.3125H2.90626C3.02707 5.3125 3.12501 5.41044 3.12501 5.53125V5.75H3.25315L6.0969 2.90625ZM1.82635 5.17051L1.78019 5.21668L1.11142 6.88858L2.78333 6.21982L2.82949 6.17365C2.74655 6.14256 2.68751 6.06255 2.68751 5.96875V5.75H2.46876C2.34794 5.75 2.25001 5.65206 2.25001 5.53125V5.3125H2.03126C1.93745 5.3125 1.85744 5.25346 1.82635 5.17051Z" fill="black"/>
</g>
</svg>
