<svg width="12" height="12" viewBox="0 0 12 12" fill="none" xmlns="http://www.w3.org/2000/svg">
<g id="pencil">
<path id="v2 (Stroke)" fill-rule="evenodd" clip-rule="evenodd" d="M9.10983 0.109835C9.25628 -0.0366117 9.49371 -0.0366117 9.64016 0.109835L11.8902 2.35984C12.0366 2.50628 12.0366 2.74372 11.8902 2.89016L4.39016 10.3902C4.35425 10.4261 4.31142 10.4543 4.26427 10.4732L0.514267 11.9732C0.374986 12.0289 0.215904 11.9962 0.109831 11.8902C0.00375716 11.7841 -0.0288956 11.625 0.0268169 11.4857L1.52682 7.73573C1.54568 7.68858 1.57392 7.64575 1.60983 7.60983L9.10983 0.109835ZM8.40533 1.875L10.125 3.59467L11.0947 2.625L9.375 0.90533L8.40533 1.875ZM9.59466 4.125L7.875 2.40533L3 7.28033V7.5H3.375C3.5821 7.5 3.75 7.66789 3.75 7.875V8.25H4.125C4.3321 8.25 4.5 8.41789 4.5 8.625V9H4.71967L9.59466 4.125ZM2.27373 8.00659L2.19459 8.08574L1.04814 10.9519L3.91426 9.80541L3.9934 9.72626C3.85121 9.67297 3.75 9.5358 3.75 9.375V9H3.375C3.16789 9 3 8.83211 3 8.625V8.25H2.625C2.46419 8.25 2.32703 8.14879 2.27373 8.00659Z" fill="black"/>
</g>
</svg>
