<svg width="20" height="20" viewBox="0 0 20 20" fill="none" xmlns="http://www.w3.org/2000/svg">
<g id="Frame">
<path id="Vector" d="M10.0001 3.33366C7.84133 3.33366 5.9218 4.3591 4.70236 5.95261L6.66675 7.91699H1.66675V2.91699L3.51561 4.76585C5.04226 2.87699 7.37973 1.66699 10.0001 1.66699C14.6024 1.66699 18.3334 5.39795 18.3334 10.0003H16.6667C16.6667 6.31842 13.682 3.33366 10.0001 3.33366ZM3.33341 10.0003C3.33341 13.6822 6.31818 16.667 10.0001 16.667C12.1588 16.667 14.0784 15.6416 15.2978 14.0481L13.3334 12.0837H18.3334V17.0837L16.4846 15.2348C14.9579 17.1237 12.6204 18.3337 10.0001 18.3337C5.39771 18.3337 1.66675 14.6027 1.66675 10.0003H3.33341Z" fill="#BFBAE3"/>
</g>
</svg>
